<mxfile host="app.diagrams.net" modified="2023-07-06T03:30:07.671Z" agent="Mozilla/5.0 (Windows NT 10.0; Win64; x64) AppleWebKit/537.36 (KHTML, like Gecko) Chrome/114.0.0.0 Safari/537.36" etag="7yKIKk3D5221Bs76C9tP" version="21.5.0" type="github">
  <diagram name="Page-1" id="2VUvKDMOOLKdO6o08y5Y">
    <mxGraphModel dx="956" dy="531" grid="1" gridSize="19.685" guides="1" tooltips="1" connect="1" arrows="1" fold="1" page="1" pageScale="1" pageWidth="827" pageHeight="1169" math="0" shadow="0">
      <root>
        <mxCell id="0" />
        <mxCell id="1" parent="0" />
        <mxCell id="P98hvPGVPlMy8sSOjnku-1" value="" style="rounded=0;whiteSpace=wrap;html=1;fillColor=#FFD08A;strokeColor=#000000;" vertex="1" parent="1">
          <mxGeometry y="78.74" width="78.74" height="78.74" as="geometry" />
        </mxCell>
        <mxCell id="P98hvPGVPlMy8sSOjnku-4" value="" style="rounded=0;whiteSpace=wrap;html=1;fillColor=#dae8fc;strokeColor=#6c8ebf;strokeWidth=1;" vertex="1" parent="1">
          <mxGeometry x="19.680000000000007" y="78.74" width="39.37" height="78.74" as="geometry" />
        </mxCell>
        <mxCell id="P98hvPGVPlMy8sSOjnku-6" value="" style="rounded=0;whiteSpace=wrap;html=1;fillColor=#FFD08A;strokeColor=#000000;" vertex="1" parent="1">
          <mxGeometry x="-0.005000000000002558" y="236.21499999999997" width="78.74" height="78.74" as="geometry" />
        </mxCell>
        <mxCell id="P98hvPGVPlMy8sSOjnku-7" value="" style="rounded=0;whiteSpace=wrap;html=1;fillColor=#dae8fc;strokeColor=#6c8ebf;strokeWidth=1;" vertex="1" parent="1">
          <mxGeometry x="19.68" y="255.9" width="39.37" height="59.05" as="geometry" />
        </mxCell>
        <mxCell id="P98hvPGVPlMy8sSOjnku-8" value="" style="rounded=0;whiteSpace=wrap;html=1;fillColor=#dae8fc;strokeColor=#6c8ebf;strokeWidth=1;" vertex="1" parent="1">
          <mxGeometry x="-0.01" y="255.9" width="59.06" height="39.37" as="geometry" />
        </mxCell>
      </root>
    </mxGraphModel>
  </diagram>
</mxfile>
